<svg width="60" height="58" viewBox="0 0 60 58" fill="none" xmlns="http://www.w3.org/2000/svg">
<path d="M31.8666 0.491129C30.7183 -0.16371 29.3005 -0.16371 28.1405 0.491129L1.89366 15.4589C0.417275 16.3008 -0.309201 18.0315 0.124341 19.6685C0.557883 21.3056 2.0577 22.4516 3.75672 22.4516H7.50627V46.7742L1.50699 51.2645C0.557883 51.9661 0.00716785 53.077 0.00716785 54.2581C0.00716785 56.3278 1.68275 58 3.75672 58H56.2505C58.3244 58 60 56.3278 60 54.2581C60 53.077 59.4493 51.9661 58.5002 51.2645L52.5009 46.7742V22.4516H56.2505C57.9495 22.4516 59.4376 21.3056 59.8711 19.6685C60.3047 18.0315 59.5782 16.3008 58.1018 15.4589L31.8549 0.491129H31.8666ZM46.8766 22.4516V46.7742H39.3775V22.4516H46.8766ZM33.7531 22.4516V46.7742H26.254V22.4516H33.7531ZM20.6297 22.4516V46.7742H13.1306V22.4516H20.6297ZM30.0036 9.35484C30.998 9.35484 31.9517 9.74908 32.6549 10.4508C33.3581 11.1526 33.7531 12.1044 33.7531 13.0968C33.7531 14.0892 33.3581 15.041 32.6549 15.7427C31.9517 16.4445 30.998 16.8387 30.0036 16.8387C29.0091 16.8387 28.0554 16.4445 27.3523 15.7427C26.6491 15.041 26.254 14.0892 26.254 13.0968C26.254 12.1044 26.6491 11.1526 27.3523 10.4508C28.0554 9.74908 29.0091 9.35484 30.0036 9.35484Z" fill="black"/>
</svg>
