<svg width="60" height="58" viewBox="0 0 60 58" fill="none" xmlns="http://www.w3.org/2000/svg">
<path d="M23.6009 7.57078C22.7833 6.7561 21.4688 6.7561 18.8372 6.7561H18.1395V2.58537C18.1395 2.03229 17.919 1.50187 17.5265 1.11079C17.134 0.719707 16.6016 0.5 16.0465 0.5C15.4914 0.5 14.959 0.719707 14.5665 1.11079C14.174 1.50187 13.9535 2.03229 13.9535 2.58537V6.7561H13.2558C10.6242 6.7561 9.30977 6.7561 8.49209 7.57078C7.67442 8.38546 7.67442 9.69507 7.67442 12.3171V12.8843C8.24186 12.7397 8.80558 12.6313 9.36558 12.559C11.1628 12.3171 13.3814 12.3171 15.7953 12.3171H16.2949C18.7088 12.3171 20.9247 12.3171 22.7246 12.559C23.2865 12.6294 23.8502 12.7379 24.4158 12.8843V12.3171C24.4158 9.69507 24.4186 8.38546 23.6009 7.57078Z" fill="black"/>
<path fill-rule="evenodd" clip-rule="evenodd" d="M2.09302 53.3293C1.53792 53.3293 1.00555 53.549 0.613032 53.9401C0.220514 54.3311 0 54.8616 0 55.4146C0 55.9677 0.220514 56.4981 0.613032 56.8892C1.00555 57.2803 1.53792 57.5 2.09302 57.5H57.907C58.4621 57.5 58.9944 57.2803 59.387 56.8892C59.7795 56.4981 60 55.9677 60 55.4146C60 54.8616 59.7795 54.3311 59.387 53.9401C58.9944 53.549 58.4621 53.3293 57.907 53.3293H55.1163V15.8539C55.1163 12.128 55.1163 10.2623 54.1228 8.83312C53.1293 7.40395 51.3767 6.74776 47.8716 5.44093C41.0205 2.8801 37.5963 1.60107 35.1935 3.25824C32.7907 4.92098 32.7907 8.56341 32.7907 15.8539V23.439H33.0419C35.4558 23.439 37.6716 23.439 39.4716 23.6809C41.4558 23.9451 43.5544 24.5707 45.2763 26.289C47.0037 28.0074 47.6316 30.0983 47.8995 32.0724C48.1395 33.8686 48.1395 36.0763 48.1395 38.4842V53.3293H43.9535V38.7317C43.9535 33.4877 43.9535 30.8685 42.3181 29.2391C40.6828 27.6098 38.054 27.6098 32.7907 27.6098H27.2093C21.946 27.6098 19.3172 27.6098 17.6819 29.2391C16.0465 30.8685 16.0465 33.4877 16.0465 38.7317V53.3293H11.8605V38.4815C11.8605 36.0763 11.8605 33.8686 12.1033 32.0752C12.3684 30.0983 12.9963 28.0074 14.7209 26.2918C16.4456 24.5707 18.5442 23.9451 20.5256 23.6781C22.3284 23.439 24.5442 23.439 26.9609 23.439H27.1619C27.0502 20.8365 26.7014 19.2405 25.574 18.1172C23.9386 16.4878 21.3098 16.4878 16.0465 16.4878C10.7833 16.4878 8.15442 16.4878 6.51907 18.1172C4.88372 19.7465 4.88372 22.3658 4.88372 27.6098V53.3293H2.09302ZM22.3256 35.9512C22.3256 35.3981 22.5461 34.8677 22.9386 34.4766C23.3311 34.0856 23.8635 33.8659 24.4186 33.8659H35.5814C36.1365 33.8659 36.6689 34.0856 37.0614 34.4766C37.4539 34.8677 37.6744 35.3981 37.6744 35.9512C37.6744 36.5043 37.4539 37.0347 37.0614 37.4258C36.6689 37.8169 36.1365 38.0366 35.5814 38.0366H24.4186C23.8635 38.0366 23.3311 37.8169 22.9386 37.4258C22.5461 37.0347 22.3256 36.5043 22.3256 35.9512ZM22.3256 44.2927C22.3256 43.7396 22.5461 43.2092 22.9386 42.8181C23.3311 42.427 23.8635 42.2073 24.4186 42.2073H35.5814C36.1365 42.2073 36.6689 42.427 37.0614 42.8181C37.4539 43.2092 37.6744 43.7396 37.6744 44.2927C37.6744 44.8458 37.4539 45.3762 37.0614 45.7673C36.6689 46.1583 36.1365 46.378 35.5814 46.378H24.4186C23.8635 46.378 23.3311 46.1583 22.9386 45.7673C22.5461 45.3762 22.3256 44.8458 22.3256 44.2927Z" fill="black"/>
</svg>
